<svg id="Next" xmlns="http://www.w3.org/2000/svg" width="59" height="57" viewBox="0 0 59 57">
  <metadata><?xpacket begin="﻿" id="W5M0MpCehiHzreSzNTczkc9d"?>
<x:xmpmeta xmlns:x="adobe:ns:meta/" x:xmptk="Adobe XMP Core 5.6-c142 79.160924, 2017/07/13-01:06:39        ">
   <rdf:RDF xmlns:rdf="http://www.w3.org/1999/02/22-rdf-syntax-ns#">
      <rdf:Description rdf:about=""/>
   </rdf:RDF>
</x:xmpmeta>
                                                                                                    
                                                                                                    
                                                                                                    
                                                                                                    
                                                                                                    
                                                                                                    
                                                                                                    
                                                                                                    
                                                                                                    
                                                                                                    
                                                                                                    
                                                                                                    
                                                                                                    
                                                                                                    
                                                                                                    
                                                                                                    
                                                                                                    
                                                                                                    
                                                                                                    
                                                                                                    
                           
<?xpacket end="w"?></metadata>
<defs>
    <style>
      .cls-1 {
        fill: #6b2a6a;
      }

      .cls-2 {
        fill: #fac015;
        fill-rule: evenodd;
      }
    </style>
  </defs>
  <rect class="cls-1" width="59" height="57" rx="4" ry="4"/>
  <path id="Next-2" data-name="Next" class="cls-2" d="M2286.11,582.288l-0.06-.013,26.27-.29-8.17,8.413a2.18,2.18,0,0,0,.04,3.066l1.3,1.278a2.136,2.136,0,0,0,3.03-.031l14-14.389a2.145,2.145,0,0,0,.61-1.537,2.124,2.124,0,0,0-.64-1.525l-14.32-14.078a2.139,2.139,0,0,0-3.03.034l-1.27,1.307a2.129,2.129,0,0,0-.61,1.532,2.046,2.046,0,0,0,.64,1.489l8.45,8.277-26.34.29a2.233,2.233,0,0,0-2.15,2.238l0.02,1.829A2.188,2.188,0,0,0,2286.11,582.288Z" transform="translate(-2273 -550)"/>
</svg>
